<?xml version="1.0" encoding="UTF-8" standalone="no"?>
<!-- Created with Inkscape (http://www.inkscape.org/) -->

<svg
   xmlns:dc="http://purl.org/dc/elements/1.1/"
   xmlns:cc="http://creativecommons.org/ns#"
   xmlns:rdf="http://www.w3.org/1999/02/22-rdf-syntax-ns#"
   xmlns:svg="http://www.w3.org/2000/svg"
   xmlns="http://www.w3.org/2000/svg"
   xmlns:sodipodi="http://sodipodi.sourceforge.net/DTD/sodipodi-0.dtd"
   xmlns:inkscape="http://www.inkscape.org/namespaces/inkscape"
   width="117.90999mm"
   height="18.324286mm"
   viewBox="0 0 417.7913 64.92857"
   id="svg5782"
   version="1.1"
   inkscape:version="0.91 r13725"
   sodipodi:docname="path.svg">
  <defs
     id="defs5784" />
  <sodipodi:namedview
     id="base"
     pagecolor="#ffffff"
     bordercolor="#666666"
     borderopacity="1.0"
     inkscape:pageopacity="0.0"
     inkscape:pageshadow="2"
     inkscape:zoom="1.979899"
     inkscape:cx="230.77849"
     inkscape:cy="-23.120853"
     inkscape:document-units="px"
     inkscape:current-layer="layer1"
     showgrid="false"
     fit-margin-top="0"
     fit-margin-left="0"
     fit-margin-right="0"
     fit-margin-bottom="0"
     inkscape:window-width="1920"
     inkscape:window-height="1058"
     inkscape:window-x="1912"
     inkscape:window-y="-8"
     inkscape:window-maximized="1" />
  <metadata
     id="metadata5787">
    <rdf:RDF>
      <cc:Work
         rdf:about="">
        <dc:format>image/svg+xml</dc:format>
        <dc:type
           rdf:resource="http://purl.org/dc/dcmitype/StillImage" />
        <dc:title></dc:title>
      </cc:Work>
    </rdf:RDF>
  </metadata>
  <g
     inkscape:label="Layer 1"
     inkscape:groupmode="layer"
     id="layer1"
     transform="translate(-100.57092,-432.57649)">
    <path
       style="fill:none;fill-rule:evenodd;stroke:#000000;stroke-width:1px;stroke-linecap:butt;stroke-linejoin:miter;stroke-opacity:1"
       d="m 131.07143,433.07649 c 359.64286,0 360,0.35714 360,0.35714 l 4.28571,1.07143 5.71429,2.5 4.64286,2.85714 4.64285,5 4.64286,7.14286 1.42857,4.28572 1.42857,7.5 -1.07142,10 -1.42858,4.64285 -3.21428,5 -4.64286,5.35715 -5.35714,3.57142 -6.42857,2.85715 -2.85715,1.07143 -3.92857,0.71428 -360.35714,0 -3.21429,-1.07143 -3.92857,-1.42857 -3.57143,-1.78571 -5.71428,-3.30358 -3.21429,-3.48214 -2.05357,-2.67857 -2.67857,-4.28571 -0.98214,-2.76786 -1.69643,-4.01786 -0.44643,-4.375 0.0893,-4.46428 0.35715,-4.375 0.17857,-2.41072 1.60714,-3.57143 1.42857,-3.57143 1.60715,-2.41071 2.32142,-3.03571 2.94643,-3.39286 3.75,-2.67857 3.48215,-1.96429 5.26785,-2.32143 3.57143,-0.44643 z"
       id="path6341"
       inkscape:connector-curvature="0" />
  </g>
</svg>
